# xmcd
#
# Track frame offsets: 
#        150
#        18455
#        37320
#        57217
#        78879
#        98640
#        120752
#        140235
#        158050
#        176742
#        194795
#        216902
#        236995
#        255310
#
# Disc length: 3713 seconds
#
# Revision: 3
# Processed by: cddbd v1.5.2PL0 Copyright (c) Steve Scherf et al.
# Submitted via: ExactAudioCopy v0.99pb4
#
DISCID=c50e7f0e
DTITLE=Various Artist - 名作(명작) Duet 2
DYEAR=2000
DGENRE=Ballad
TTITLE0=AS ONE - 마법의 성 (Millennium Version)
TTITLE1=조규찬,윤사라 - 소중한 너 (Millennium Version)
TTITLE2=이혜진,주영훈 - 연풍연가
TTITLE3=The Classic - 내 마음에 비친 내 모습
TTITLE4=박정현,임재범 - 사랑보다 깊은 상처 (Deut With 임재범)
TTITLE5=박광현,김건모 - 함께
TTITLE6=타샤니 - 하루하루
TTITLE7=이문세,이적 - 조조할인 (With 이적)
TTITLE8=이소라,김민종 - 우리다시
TTITLE9=자화상 - 니가 내리는 날
TTITLE10=패닉 - 달팽이
TTITLE11=민들레 - 난 너에게
TTITLE12=컨츄리 꼬꼬 - 애련
TTITLE13=박혜영,유정연 - 그럴 수 있잖아요
EXTD=
EXTT0=
EXTT1=
EXTT2=
EXTT3=
EXTT4=
EXTT5=
EXTT6=
EXTT7=
EXTT8=
EXTT9=
EXTT10=
EXTT11=
EXTT12=
EXTT13=
PLAYORDER=
